<svg width="558" height="361" viewBox="0 0 558 361" fill="none" xmlns="http://www.w3.org/2000/svg">
<g clip-path="url(#clip0_28_16)">
<path d="M549.75 23.9843L536.661 11.4698L492.916 56.0912L507.05 69.4371L549.75 23.9843Z" fill="#D1D7DB"/>
<path d="M556.886 53.3771C561.441 36.7156 551.627 19.5162 534.966 14.9612C518.306 10.4063 501.108 20.2206 496.553 36.8821C491.998 53.5437 501.812 70.7431 518.473 75.298C535.133 79.853 552.331 70.0386 556.886 53.3771Z" fill="#D1D7DB"/>
<path d="M527.93 63.6824C543.863 57.0138 551.373 38.691 544.705 22.7573C538.037 6.82347 519.715 -0.68751 503.782 5.981C487.849 12.6495 480.339 30.9723 487.007 46.9061C493.675 62.8399 511.997 70.3509 527.93 63.6824Z" fill="#FFFFFD"/>
<path d="M535.893 22.1082L516.089 34.7931" stroke="#FE5D5D" stroke-width="0.76" stroke-miterlimit="10"/>
<path d="M519.905 34.7932C519.905 35.6702 519.645 36.5276 519.157 37.2568C518.67 37.986 517.978 38.5544 517.167 38.89C516.357 39.2257 515.466 39.3135 514.605 39.1424C513.745 38.9713 512.955 38.549 512.335 37.9288C511.715 37.3086 511.293 36.5185 511.122 35.6583C510.95 34.7981 511.038 33.9065 511.374 33.0962C511.71 32.2859 512.278 31.5934 513.007 31.1061C513.736 30.6188 514.594 30.3588 515.471 30.3588C516.647 30.3588 517.774 30.826 518.606 31.6576C519.438 32.4892 519.905 33.6171 519.905 34.7932Z" fill="#D1D7DB"/>
<path d="M504.556 25.2207L514.639 34.7931" stroke="#D1D7DB" stroke-width="0.76" stroke-miterlimit="10"/>
<path d="M206.465 249.372L276.325 359.678" stroke="#213033" stroke-width="1.04" stroke-miterlimit="10"/>
<path d="M267.328 249.372L203.289 359.891" stroke="#213033" stroke-width="1.04" stroke-miterlimit="10"/>
<path d="M285.662 258.348C285.662 258.348 274.534 268.581 230.384 264.146C186.234 259.712 158.436 236.815 156.176 185.585C155.024 154.526 163.921 123.924 181.544 98.3247L287.921 209.91L285.662 258.348Z" fill="#FFFFFD"/>
<path d="M206.124 68.2218C206.124 68.2218 186.426 59.5022 182.674 77.3465C182.674 77.3465 168.05 74.8948 160.568 91.5878C150.292 114.506 176.769 125.379 176.769 125.379L252.086 122.181C252.086 122.181 273.127 94.9776 248.27 84.4885C248.27 84.4885 248.675 67.6249 231.962 71.1212L206.124 68.2218Z" fill="#FE5D5D"/>
<path d="M368.355 343.625L349.637 343.539L340.556 313.778L358.015 309.727L368.355 343.625Z" fill="#FFC9BD"/>
<path d="M348.977 339.681C353.368 340.853 363.345 344.691 368.014 337.911L399.628 354.967L343.839 354.604L346.44 341.28C346.567 340.733 346.905 340.258 347.379 339.959C347.854 339.659 348.428 339.559 348.977 339.681Z" fill="#090B0C"/>
<path d="M399.611 355.072L343.823 354.702L343.791 359.542L399.579 359.912L399.611 355.072Z" fill="white"/>
<path d="M285.662 200.402L321.05 212.383C325.627 213.93 329.776 216.529 333.164 219.973C336.552 223.417 339.084 227.609 340.556 232.21L372.384 324.949L338.957 328.872L302.205 238.179L285.662 200.402Z" fill="#2D3F96"/>
<path d="M274.193 343.582L255.476 343.497L265.175 313.799L283.893 313.884L274.193 343.582Z" fill="#FFC9BD"/>
<path d="M256.435 339.681C260.848 340.853 270.803 344.691 275.493 337.911L307.086 354.967L251.297 354.604L253.898 341.28C254.025 340.733 254.363 340.258 254.838 339.959C255.313 339.659 255.887 339.559 256.435 339.681Z" fill="#090B0C"/>
<path d="M307.05 355.055L251.262 354.685L251.23 359.525L307.018 359.895L307.05 355.055Z" fill="white"/>
<path d="M198.428 196.138C198.428 196.138 184.934 229.055 211.049 239.8C211.049 239.8 230.917 246.195 279.949 243.424L254.367 324.437L285.598 327.87L317.98 240.674C319.868 235.607 319.887 230.033 318.035 224.954C316.183 219.874 312.581 215.621 307.875 212.959L278.307 196.138H198.428Z" fill="#4151B3"/>
<path d="M241.896 103.058C241.896 103.058 250.423 103.058 254.218 115.849C258.012 128.641 268.266 159.511 268.266 159.511L243.026 179.082L239.146 141.091L241.896 103.058Z" fill="#C1CCFF"/>
<path d="M317.937 177.419H339.703C343.668 177.41 347.512 178.782 350.575 181.299L357.504 186.992L353.88 189.486H315.507L317.937 177.419Z" fill="#FFC9BD"/>
<path d="M268.266 159.618L321.135 171.343L319.558 186.416H249.229L247.652 162.176L268.266 159.618Z" fill="#C1CCFF"/>
<path d="M210.43 96.1927L185.957 104.87L196.915 189.486H246.628L248.973 150.003C248.973 150.003 252.086 146.272 252.725 136.273C253.445 126.875 251.031 117.504 245.861 109.624L241.896 103.058L222.965 97.344L210.43 96.1927Z" fill="#C1CCFF"/>
<path d="M246.65 120.795C249.718 125.769 251.532 131.414 251.937 137.245C252.342 143.075 251.325 148.916 248.974 154.267L248.163 170.064" stroke="#98ABED" stroke-width="0.75" stroke-miterlimit="10"/>
<path d="M185.957 104.87C185.957 104.87 174.787 105.765 175.938 125.336C176.684 138.384 178.645 162.624 179.882 177.27C180.155 180.599 181.67 183.704 184.127 185.967C186.583 188.23 189.801 189.487 193.142 189.486H211.646L203.118 120.795L185.957 104.87Z" fill="#C1CCFF"/>
<path d="M255.177 177.419H276.922C280.876 177.385 284.719 178.727 287.794 181.214L294.722 186.906L291.098 189.401H252.726L255.177 177.419Z" fill="#FFC9BD"/>
<path d="M200.39 162.176L258.119 171.812L256.136 189.486H200.411L200.39 162.176Z" fill="#C1CCFF"/>
<path d="M203.523 125.315L206.465 163.199L258.119 171.812L257.437 177.931" stroke="#98ABED" stroke-width="0.75" stroke-miterlimit="10"/>
<path d="M208.405 163.519L196.51 162.176" stroke="#98ABED" stroke-width="0.75" stroke-miterlimit="10"/>
<path d="M231.535 64.3204C231.355 65.8072 231.618 67.3142 232.292 68.6517C232.966 69.9892 234.021 71.0973 235.323 71.8366C236.626 72.5758 238.118 72.9131 239.612 72.8061C241.106 72.699 242.534 72.1523 243.718 71.2348C244.902 70.3173 245.788 69.0701 246.264 67.6501C246.741 66.2302 246.786 64.701 246.395 63.2552C246.005 61.8093 245.195 60.5114 244.068 59.525C242.941 58.5385 241.547 57.9075 240.063 57.7114C239.068 57.5801 238.057 57.6473 237.089 57.9091C236.12 58.1709 235.213 58.6222 234.42 59.2368C233.627 59.8514 232.964 60.6171 232.469 61.4897C231.974 62.3623 231.656 63.3244 231.535 64.3204Z" fill="#EFB2A8"/>
<path d="M226.27 29.847C226.266 32.2369 225.553 34.5719 224.222 36.557C222.892 38.542 221.002 40.0881 218.793 40.9997C216.584 41.9114 214.155 42.1477 211.811 41.6789C209.468 41.2101 207.316 40.0571 205.628 38.3657C203.94 36.6743 202.791 34.5204 202.326 32.1762C201.861 29.8319 202.102 27.4025 203.017 25.1949C203.933 22.9874 205.482 21.1007 207.469 19.7734C209.457 18.4461 211.793 17.7377 214.183 17.7377C215.772 17.7377 217.345 18.051 218.813 18.6599C220.281 19.2687 221.614 20.161 222.737 21.2857C223.86 22.4105 224.75 23.7455 225.356 25.2146C225.962 26.6837 226.273 28.2578 226.27 29.847Z" fill="#FE5D5D"/>
<path d="M243.026 50.8252C243.026 56.9261 240.602 62.7772 236.289 67.0912C231.975 71.4052 226.124 73.8287 220.024 73.8287C207.233 73.8287 194.804 65.7274 194.804 53.0211C194.804 40.3148 207.318 27.8217 220.024 27.8217C226.124 27.8217 231.975 30.2452 236.289 34.5592C240.602 38.8732 243.026 44.7243 243.026 50.8252Z" fill="#FE5D5D"/>
<path d="M227.655 85.7676L225.801 102.183C225.14 107.961 221.239 110.711 215.589 109.944C210.75 109.368 206.487 106.319 206.465 101.416L210.729 75.7262L227.655 85.7676Z" fill="#FFC9BD"/>
<path d="M226.76 93.6558C215.248 92.6537 209.066 78.4551 209.066 78.4551L227.89 84.1047L226.76 93.6558Z" fill="#DD9790"/>
<path d="M222.411 87.4092C232.153 87.9209 240.553 80.6723 241.256 72.7416L242.77 54.0232C243.169 49.2497 241.701 44.5075 238.675 40.794C235.65 37.0804 231.302 34.6848 226.547 34.111C216.421 32.8958 205.442 39.9098 204.206 50.0578L203.161 65.1092C202.873 67.8545 203.151 70.6296 203.977 73.2634C204.802 75.8973 206.159 78.334 207.963 80.4235C209.766 82.5129 211.979 84.2107 214.464 85.4121C216.949 86.6136 219.653 87.2933 222.411 87.4092Z" fill="#FFC9BD"/>
<path d="M232.218 70.2684L233.454 73.8288H230.406" stroke="#201D2F" stroke-width="0.57" stroke-linecap="round" stroke-linejoin="round"/>
<path d="M221.857 56.0272C221.857 56.0272 226.718 55.4516 226.547 57.9673C226.547 57.9673 226.398 59.6515 222.155 60.0992C217.913 60.5469 216.847 60.0992 216.613 58.5216C216.378 56.9439 219.576 56.0698 221.857 56.0272Z" fill="#FE5D5D"/>
<path d="M238.485 56.7946C238.485 56.7946 235.032 56.1337 234.691 58.4149C234.691 58.4149 234.477 59.9499 237.505 60.5468C240.532 61.1438 241.555 60.5468 241.768 59.289C241.981 58.0312 240.127 56.9012 238.485 56.7946Z" fill="#FE5D5D"/>
<path d="M224.692 65.2371C224.692 65.5787 224.591 65.9125 224.401 66.1965C224.212 66.4805 223.942 66.7018 223.626 66.8325C223.311 66.9632 222.964 66.9974 222.629 66.9308C222.294 66.8642 221.986 66.6997 221.745 66.4582C221.503 66.2167 221.339 65.909 221.272 65.574C221.205 65.239 221.24 64.8918 221.37 64.5763C221.501 64.2607 221.722 63.991 222.006 63.8013C222.29 63.6115 222.624 63.5103 222.966 63.5103C223.423 63.5103 223.863 63.6922 224.187 64.016C224.51 64.3399 224.692 64.7791 224.692 65.2371Z" fill="#201D2F"/>
<path d="M237.483 67.4543C238.342 67.4543 239.039 66.7575 239.039 65.898C239.039 65.0385 238.342 64.3417 237.483 64.3417C236.624 64.3417 235.927 65.0385 235.927 65.898C235.927 66.7575 236.624 67.4543 237.483 67.4543Z" fill="#201D2F"/>
<path d="M222.966 76.3871H232.879C232.879 76.3871 233.241 79.8835 227.933 79.8408C222.625 79.7982 222.966 76.3871 222.966 76.3871Z" fill="#FFFFFD"/>
<path d="M206.465 60.6322C210.785 59.32 214.703 56.9376 217.856 53.7062C221.009 50.4748 223.295 46.4992 224.5 42.1483L222.774 32.9171C222.774 32.9171 197.832 30.5506 202.713 56.6241L206.465 60.6322Z" fill="#FE5D5D"/>
<path d="M217.06 43.1503C217.06 43.1503 224.692 53.3623 249.037 55.3023C249.037 55.3023 250.295 30.5079 222.688 32.917L217.06 43.1503Z" fill="#FE5D5D"/>
<path d="M203.523 34.6865C206.869 31.8249 210.808 29.7423 215.056 28.5892C218.61 27.6832 222.333 27.6832 225.886 28.5892" stroke="white" stroke-width="0.76" stroke-linecap="round" stroke-linejoin="round"/>
<path d="M210.942 57.4343L205.122 66.6016L203.523 52.4456L210.942 57.4343Z" fill="#FE5D5D"/>
<path d="M192.864 62.5935C192.689 64.0748 192.955 65.575 193.629 66.9057C194.303 68.2363 195.355 69.338 196.654 70.0725C197.952 70.8069 199.438 71.1412 200.926 71.0335C202.414 70.9258 203.837 70.3808 205.016 69.4671C206.195 68.5533 207.077 67.3115 207.553 65.8976C208.028 64.4837 208.075 62.9608 207.688 61.5203C207.301 60.0797 206.497 58.7857 205.376 57.8008C204.256 56.8159 202.87 56.184 201.392 55.9845C200.396 55.8473 199.383 55.9102 198.413 56.1697C197.442 56.4292 196.532 56.88 195.738 57.4956C194.944 58.1112 194.281 58.8792 193.787 59.7546C193.294 60.6301 192.98 61.5952 192.864 62.5935Z" fill="#FFC9BD"/>
<path d="M202.735 66.0898C202.735 66.0898 203.395 60.6321 198.066 60.8666" stroke="#201D2F" stroke-width="0.57" stroke-linecap="round" stroke-linejoin="round"/>
<path d="M194.719 101.778C194.719 101.778 201.413 110.05 216.613 113.355C221.061 114.209 225.667 113.578 229.723 111.56C233.778 109.542 237.059 106.247 239.061 102.183C239.061 102.183 225.353 96.1927 221.58 96.1927L207.147 97.3653L194.719 101.778Z" fill="#FFC9BD"/>
<path d="M363.707 360.019L416.107 196.18L469.829 358.037" stroke="#213033" stroke-width="1.04" stroke-miterlimit="10"/>
<path d="M122.962 360.019L175.383 196.18L229.105 358.037" stroke="#213033" stroke-width="1.04" stroke-miterlimit="10"/>
<path d="M254.41 189.571H105.311V202.768H254.41V189.571Z" fill="#111D36"/>
<path d="M503.895 189.571H251.084V202.768H503.895V189.571Z" fill="#24385B"/>
<path d="M300.03 184.37H365.093C365.788 184.37 366.455 184.646 366.947 185.138C367.439 185.629 367.715 186.296 367.715 186.992C367.715 187.687 367.439 188.354 366.947 188.846C366.455 189.338 365.788 189.614 365.093 189.614H300.03C299.335 189.614 298.668 189.338 298.176 188.846C297.684 188.354 297.408 187.687 297.408 186.992C297.408 186.296 297.684 185.629 298.176 185.138C298.668 184.646 299.335 184.37 300.03 184.37Z" fill="#090B0C"/>
<path d="M266.604 184.369H313.503C314.197 184.375 314.861 184.653 315.351 185.144C315.842 185.634 316.12 186.298 316.125 186.992C316.123 187.346 316.049 187.697 315.908 188.022C315.768 188.347 315.563 188.641 315.306 188.886C315.05 189.13 314.746 189.321 314.415 189.446C314.083 189.571 313.73 189.628 313.375 189.614H266.476C266.131 189.614 265.79 189.546 265.472 189.414C265.154 189.283 264.865 189.089 264.622 188.846C264.378 188.602 264.185 188.313 264.053 187.995C263.921 187.677 263.854 187.336 263.854 186.992C263.853 186.636 263.925 186.285 264.065 185.958C264.204 185.631 264.409 185.336 264.666 185.091C264.923 184.846 265.228 184.655 265.561 184.531C265.894 184.407 266.249 184.352 266.604 184.369Z" fill="#3D5056"/>
<path d="M308.728 164.628L446.037 164.628C449.417 164.628 452.156 161.888 452.156 158.509V70.7589C452.156 67.3796 449.417 64.6402 446.037 64.6402L308.728 64.6402C305.349 64.6402 302.61 67.3796 302.61 70.7589V158.509C302.61 161.888 305.349 164.628 308.728 164.628Z" fill="#273237"/>
<path d="M311.99 164.628L449.299 164.628C452.678 164.628 455.417 161.888 455.417 158.509V70.7589C455.417 67.3796 452.678 64.6402 449.299 64.6402L311.99 64.6402C308.611 64.6402 305.871 67.3796 305.871 70.7589V158.509C305.871 161.888 308.611 164.628 311.99 164.628Z" fill="#273237"/>
<path d="M371.019 111.138L335.184 164.628H386.731L371.019 111.138Z" fill="#090B0C"/>
<path d="M396.708 109.773H373.663C373.178 109.77 372.699 109.875 372.261 110.08C371.822 110.285 371.434 110.585 371.126 110.959C370.818 111.333 370.597 111.77 370.479 112.24C370.361 112.709 370.349 113.2 370.444 113.675L385.366 186.992C385.51 187.733 385.909 188.401 386.493 188.879C387.076 189.358 387.809 189.618 388.564 189.614H412.76C413.249 189.616 413.732 189.508 414.174 189.298C414.616 189.087 415.005 188.781 415.312 188.4C415.619 188.019 415.836 187.574 415.948 187.098C416.06 186.622 416.063 186.126 415.958 185.649L399.927 112.331C399.765 111.6 399.357 110.947 398.771 110.481C398.185 110.015 397.456 109.765 396.708 109.773Z" fill="#3D5056"/>
<path d="M363.046 184.37H405.576V189.614H363.046C362.702 189.614 362.361 189.546 362.043 189.414C361.725 189.283 361.436 189.09 361.192 188.846C360.949 188.603 360.756 188.313 360.624 187.995C360.492 187.677 360.424 187.336 360.424 186.992C360.424 186.296 360.701 185.629 361.192 185.138C361.684 184.646 362.351 184.37 363.046 184.37Z" fill="#3D5056"/>
<path d="M557.041 359.891H20.8916" stroke="#213033" stroke-width="1.04" stroke-miterlimit="10"/>
</g>
<defs>
<clipPath id="clip0_28_16">
<rect width="558" height="361" fill="white"/>
</clipPath>
</defs>
</svg>
